# xmcd CD database file
#
# Track frame offsets:
#	150
#	34916
#	95043
#	117151
#	177361
#
# Disc length: 2549 seconds
#
# Revision: 0
# Processed by: cddbd v1.5.1PL2 Copyright (c) Steve Scherf et al.
# Submitted via: Feurio! 1.68 - http://www.feurio.com
#
DISCID=3e09f305
DTITLE=Eric Burdon - declares "WAR"
DYEAR=1900
DGENRE=
TTITLE0=The Vision Of Rassan
TTITLE1=Tobacco Road
TTITLE2=Spill The Wine
TTITLE3=Blues For Memphis Slim
TTITLE4=You're No Stranger
EXTD=
EXTT0=
EXTT1=
EXTT2=
EXTT3=
EXTT4=
PLAYORDER=
